<svg xmlns="http://www.w3.org/2000/svg" width="216.04" height="43.191" viewBox="0 0 216.04 43.191"><defs><style>.a,.c{fill:#ff4500;}.b,.d{fill:#3c3c3c;}.c,.d{fill-rule:evenodd;}</style></defs><g transform="translate(-0.6 -1.7)"><path class="a" d="M61.47,23.86h.06L68.44,5.38h2.31L62.61,26.66H60.33L52.21,5.38h2.35Z"/><path class="a" d="M81.15,17.58c0-2.43-1.32-3.63-3.76-3.63a6,6,0,0,0-4.17,1.65l-1.14-1.35a7.87,7.87,0,0,1,5.52-2c3,0,5.47,1.69,5.47,5.11V23.5a19.459,19.459,0,0,0,.24,3.16H81.48a14.229,14.229,0,0,1-.21-2.29h-.06A5.64,5.64,0,0,1,76.1,27c-2.13,0-4.86-1.15-4.86-4.27C71.24,18.42,76,18,81.15,18Zm-.6,2.05c-3.34,0-7.21.36-7.21,3,0,2,1.71,2.67,3.3,2.67a4.39,4.39,0,0,0,4.51-4.65V19.63Z"/><path class="a" d="M90.44,26.66h-2V3.94h2Z"/><path class="a" d="M106.12,26.66c-.06-.76-.12-1.81-.12-2.41h-.06A5.49,5.49,0,0,1,101.13,27c-3.57,0-5.34-2.32-5.34-5.8V12.59h2v7.79c0,2.94.87,4.92,3.81,4.92,2.17,0,4.27-1.74,4.27-5.49V12.59h2v11a28.734,28.734,0,0,0,.12,3.1Z"/><path class="a" d="M126.13,20.17H114.47a5.14,5.14,0,0,0,5.14,5.1,5.32,5.32,0,0,0,4.51-2.43l1.53,1.2a7.34,7.34,0,0,1-6,3,7.14,7.14,0,0,1-7.27-7.39,7.11,7.11,0,0,1,7.09-7.4c4.42,0,6.73,3.13,6.73,7C126.16,19.47,126.16,19.81,126.13,20.17Zm-2-1.63a4.43,4.43,0,0,0-4.7-4.54,5,5,0,0,0-4.93,4.59Z"/><path class="b" d="M132.65,24.28v2.38h-2V3.94h2V15h.06a6.42,6.42,0,0,1,5.32-2.8,7.07,7.07,0,0,1,7.27,7.4A7.07,7.07,0,0,1,138,27a6.52,6.52,0,0,1-5.32-2.74ZM137.82,14a5.4,5.4,0,0,0-5.41,5.68,5.37,5.37,0,0,0,5.41,5.64c3.4,0,5.32-2.52,5.32-5.64S141.22,14,137.82,14Z"/><path class="b" d="M156.15,27a7.21,7.21,0,0,1-7.48-7.39,7.5,7.5,0,0,1,15,0A7.21,7.21,0,0,1,156.15,27Zm0-13.07c-3.24,0-5.32,2.52-5.32,5.68s2.08,5.64,5.32,5.64a5.305,5.305,0,0,0,5.35-5.64c0-3.15-2.07-5.61-5.35-5.61Z"/><path class="b" d="M178.27,26.66c-.06-.76-.12-1.81-.12-2.41h-.06A5.51,5.51,0,0,1,173.28,27c-3.58,0-5.35-2.32-5.35-5.8V12.59h2v7.79c0,2.94.87,4.92,3.82,4.92,2.16,0,4.27-1.74,4.27-5.49V12.59h2v11a28.736,28.736,0,0,0,.12,3.1Z"/><path class="b" d="M187.34,12.59c.06.76.12,1.81.12,2.41h.06a5.5,5.5,0,0,1,4.81-2.77c3.57,0,5.35,2.32,5.35,5.8v8.63h-2.05V18.87c0-2.94-.87-4.92-3.81-4.92-2.16,0-4.27,1.74-4.27,5.49v7.22h-2v-11a28.736,28.736,0,0,0-.12-3.1Z"/><path class="b" d="M209.22,27A7.07,7.07,0,0,1,202,19.63a7.07,7.07,0,0,1,7.27-7.4,6.39,6.39,0,0,1,5.31,2.8h.06V3.94h2V26.66h-2V24.28h-.06A6.48,6.48,0,0,1,209.22,27Zm.21-1.75a5.36,5.36,0,0,0,5.4-5.64,5.39,5.39,0,0,0-5.4-5.68c-3.4,0-5.32,2.55-5.32,5.68s1.89,5.66,5.32,5.66Z"/><path class="b" d="M44.61,41.61h-1V32h2.82c1.9,0,3.28.69,3.28,2.56A2.48,2.48,0,0,1,47.28,37l2.81,4.57h-1.2l-2.66-4.49H44.61Zm0-5.33H46.3c1.56,0,2.46-.57,2.46-1.71s-1-1.72-2.42-1.72H44.61Z"/><path class="b" d="M54.21,33.47a.65.65,0,1,1,.66-.65A.66.66,0,0,1,54.21,33.47Zm.47,8.14h-.93V35.26h.93Z"/><path class="b" d="M62.54,36.77A1.7,1.7,0,0,0,61,35.88c-.67,0-1.35.28-1.35,1s.48.86,1.52,1.08c1.49.31,2.2.87,2.2,1.86,0,1.45-1.22,2-2.39,2a3,3,0,0,1-2.51-1.24l.73-.54A2.13,2.13,0,0,0,61,41c.78,0,1.49-.29,1.49-1.11s-.66-.94-1.87-1.22c-.75-.18-1.82-.51-1.82-1.71A1.989,1.989,0,0,1,61,35.1a2.59,2.59,0,0,1,2.22,1.14Z"/><path class="b" d="M73,38.68H67.73A2.32,2.32,0,0,0,70.05,41a2.39,2.39,0,0,0,2-1.1l.7.54A3.364,3.364,0,1,1,70,35.1a2.91,2.91,0,0,1,3,3.15A3.391,3.391,0,0,1,73,38.68ZM72.07,38A2,2,0,0,0,70,35.88,2.25,2.25,0,0,0,67.74,38Z"/><path class="b" d="M85.32,36H83.53v3.7c0,.95.39,1.17,1,1.17a1.84,1.84,0,0,0,.8-.21v.8a2.86,2.86,0,0,1-1.09.19A1.51,1.51,0,0,1,82.6,40V36H81.29v-.78H82.6V33.47h.93v1.79h1.79Z"/><path class="b" d="M91.71,41.78a3.34,3.34,0,1,1,3.39-3.34,3.26,3.26,0,0,1-3.39,3.34Zm0-5.9a2.56,2.56,0,1,0,2.41,2.56,2.39,2.39,0,0,0-2.41-2.56Z"/><path class="b" d="M99.46,42.89a3.21,3.21,0,0,0,2.43,1.16,2.25,2.25,0,0,0,2.48-2.49v-1.2h0a2.88,2.88,0,0,1-2.4,1.25,3.11,3.11,0,0,1-3.28-3.23,3.18,3.18,0,0,1,3.28-3.28,2.86,2.86,0,0,1,2.4,1.26h0v-1.1h.92v6.3a3.1,3.1,0,0,1-3.45,3.31,4.28,4.28,0,0,1-3-1.28ZM102,40.83a2.36,2.36,0,0,0,2.44-2.47A2.44,2.44,0,0,0,102,35.88a2.48,2.48,0,0,0,0,4.95Z"/><path class="b" d="M115.5,38.68h-5.27A2.32,2.32,0,0,0,112.55,41a2.42,2.42,0,0,0,2-1.1l.69.54a3.37,3.37,0,1,1-2.81-5.33,2.91,2.91,0,0,1,3,3.15A.639.639,0,0,1,115.5,38.68Zm-.93-.73a2,2,0,0,0-2.1-2.07A2.25,2.25,0,0,0,110.25,38Z"/><path class="b" d="M122.39,36H120.6v3.7c0,.95.39,1.17,1,1.17a1.8,1.8,0,0,0,.8-.21v.8a2.86,2.86,0,0,1-1.09.19A1.51,1.51,0,0,1,119.68,40V36h-1.32v-.78h1.32V33.47h.92v1.79h1.79Z"/><path class="b" d="M126.84,36.31A2.37,2.37,0,0,1,129,35.1a2.31,2.31,0,0,1,2.42,2.62v3.89h-.93V38.1c0-1.33-.39-2.22-1.72-2.22-1,0-1.93.78-1.93,2.48v3.25h-.92V31.36h.92v5Z"/><path class="b" d="M141.58,38.68h-5.27A2.32,2.32,0,0,0,138.63,41a2.41,2.41,0,0,0,2-1.1l.69.54a3.37,3.37,0,1,1-2.81-5.33,2.91,2.91,0,0,1,3,3.15A.639.639,0,0,1,141.58,38.68Zm-.93-.73a2,2,0,0,0-2.1-2.07A2.25,2.25,0,0,0,136.33,38Z"/><path class="b" d="M145.56,35.26h.88c0,.34.05.82.05,1.09h0a2.26,2.26,0,0,1,2-1.25,2.32,2.32,0,0,1,.61.07L149,36a2.53,2.53,0,0,0-.65-.08c-1,0-1.86.7-1.86,2.4v3.25h-.92v-5A7.211,7.211,0,0,0,145.56,35.26Z"/><path class="c" d="M17.83,16.53C22.07,12.7,26.7,8.65,30.94,4.81c1.63-1.54,2.61-1.37,3.55-.31l6.42,8.29Z"/><path class="d" d="M28,40.62h1.45c.87.22,1.37-1.23,1.56-1.57Q36.23,26.63,41.39,14.2c.09-.5,0-1.77-1.25-1.49L30.37,14.5,23.9,30.86Z"/><path class="c" d="M.6,1.79,11.54,1.7C15.7,11.51,19.83,20.62,24,30.64c.93,2.24,2,4.53,3,6.88.49,1.16,1.29,3,2.41,3.1H18.88a2,2,0,0,1-2.14-1.43Z"/></g></svg>